<?xml version="1.0" encoding="UTF-8"?>
<svg xmlns="http://www.w3.org/2000/svg" xmlns:xlink="http://www.w3.org/1999/xlink" width="810pt" height="809.999993pt" viewBox="0 0 810 809.999993" version="1.2">
<defs>
<clipPath id="clip1">
  <path d="M 51.195312 18.855469 L 758.445312 18.855469 L 758.445312 727 L 51.195312 727 Z M 51.195312 18.855469 "/>
</clipPath>
<clipPath id="clip2">
  <path d="M 51.195312 21 L 394 21 L 394 724 L 51.195312 724 Z M 51.195312 21 "/>
</clipPath>
<clipPath id="clip3">
  <path d="M 398 393 L 700 393 L 700 791.355469 L 398 791.355469 Z M 398 393 "/>
</clipPath>
</defs>
<g id="surface1">
<rect x="0" y="0" width="810" height="809.999993" style="fill:rgb(100%,100%,100%);fill-opacity:1;stroke:none;"/>
<rect x="0" y="0" width="810" height="809.999993" style="fill:rgb(100%,100%,100%);fill-opacity:1;stroke:none;"/>
<rect x="0" y="0" width="810" height="809.999993" style="fill:rgb(100%,100%,100%);fill-opacity:1;stroke:none;"/>
<g clip-path="url(#clip1)" clip-rule="nonzero">
<path style=" stroke:none;fill-rule:nonzero;fill:rgb(97.648621%,78.819275%,19.999695%);fill-opacity:1;" d="M 404.894531 543.914062 C 310.425781 543.914062 233.84375 467.28125 233.84375 372.734375 C 233.84375 278.195312 310.425781 201.554688 404.894531 201.554688 C 499.359375 201.554688 575.941406 278.195312 575.941406 372.734375 C 575.941406 467.28125 499.359375 543.914062 404.894531 543.914062 Z M 404.894531 18.835938 C 209.585938 18.835938 51.269531 177.28125 51.269531 372.734375 C 51.269531 568.183594 209.585938 726.636719 404.894531 726.636719 C 600.195312 726.636719 758.519531 568.183594 758.519531 372.734375 C 758.519531 177.28125 600.195312 18.835938 404.894531 18.835938 "/>
</g>
<g clip-path="url(#clip2)" clip-rule="nonzero">
<path style=" stroke:none;fill-rule:nonzero;fill:rgb(0%,0%,0%);fill-opacity:1;" d="M 233.84375 372.734375 C 233.84375 282.078125 304.269531 207.886719 393.355469 201.953125 L 393.355469 21.855469 C 203.644531 26.433594 51.269531 181.777344 51.269531 372.734375 C 51.269531 563.695312 203.644531 719.039062 393.355469 723.621094 L 393.355469 543.519531 C 304.269531 537.582031 233.84375 463.394531 233.84375 372.734375 "/>
</g>
<g clip-path="url(#clip3)" clip-rule="nonzero">
<path style=" stroke:none;fill-rule:nonzero;fill:rgb(0%,0%,0%);fill-opacity:1;" d="M 398.488281 393.023438 L 548.785156 791.339844 L 699.074219 668.246094 Z M 398.488281 393.023438 "/>
</g>
</g>
</svg>
