<?xml version="1.0" encoding="UTF-8"?>
<svg xmlns="http://www.w3.org/2000/svg" xmlns:xlink="http://www.w3.org/1999/xlink" width="810pt" height="809.999993pt" viewBox="0 0 810 809.999993" version="1.2">
<defs>
<clipPath id="clip1">
  <path d="M 28.332031 28.332031 L 781.332031 28.332031 L 781.332031 781.332031 L 28.332031 781.332031 Z M 28.332031 28.332031 "/>
</clipPath>
<clipPath id="clip2">
  <path d="M 28.332031 28.332031 L 409 28.332031 L 409 781.332031 L 28.332031 781.332031 Z M 28.332031 28.332031 "/>
</clipPath>
</defs>
<g id="surface1">
<rect x="0" y="0" width="810" height="809.999993" style="fill:rgb(100%,100%,100%);fill-opacity:1;stroke:none;"/>
<rect x="0" y="0" width="810" height="809.999993" style="fill:rgb(100%,100%,100%);fill-opacity:1;stroke:none;"/>
<g clip-path="url(#clip1)" clip-rule="nonzero">
<path style=" stroke:none;fill-rule:nonzero;fill:rgb(0%,0%,0%);fill-opacity:1;" d="M 781.171875 404.71875 C 781.171875 612.636719 612.628906 781.179688 404.71875 781.179688 C 196.800781 781.179688 28.25 612.636719 28.25 404.71875 C 28.25 196.808594 196.800781 28.25 404.71875 28.25 C 612.628906 28.25 781.171875 196.808594 781.171875 404.71875 "/>
</g>
<path style=" stroke:none;fill-rule:nonzero;fill:rgb(100%,100%,100%);fill-opacity:1;" d="M 584.910156 526.296875 C 584.910156 541.625 572.496094 554.050781 557.175781 554.050781 L 243.941406 554.050781 C 228.621094 554.050781 216.199219 541.625 216.199219 526.296875 L 216.199219 326.558594 C 216.199219 311.246094 228.621094 298.8125 243.941406 298.8125 L 557.175781 298.8125 C 572.496094 298.8125 584.910156 311.246094 584.910156 326.558594 L 584.910156 526.296875 M 589.828125 257.160156 L 211.289062 257.160156 C 192.769531 257.160156 177.761719 272.183594 177.761719 290.695312 L 177.761719 562.167969 C 177.761719 580.6875 192.769531 595.695312 211.289062 595.695312 L 589.828125 595.695312 C 608.347656 595.695312 623.347656 580.6875 623.347656 562.167969 L 623.347656 290.695312 C 623.347656 272.183594 608.347656 257.160156 589.828125 257.160156 "/>
<path style=" stroke:none;fill-rule:nonzero;fill:rgb(100%,100%,100%);fill-opacity:1;" d="M 269.695312 332.09375 L 302.132812 332.09375 L 302.132812 205.554688 L 269.695312 205.554688 Z M 269.695312 332.09375 "/>
<path style=" stroke:none;fill-rule:nonzero;fill:rgb(100%,100%,100%);fill-opacity:1;" d="M 327.011719 332.09375 L 359.457031 332.09375 L 359.457031 205.554688 L 327.011719 205.554688 Z M 327.011719 332.09375 "/>
<path style=" stroke:none;fill-rule:nonzero;fill:rgb(100%,100%,100%);fill-opacity:1;" d="M 384.335938 332.09375 L 416.785156 332.09375 L 416.785156 205.554688 L 384.335938 205.554688 Z M 384.335938 332.09375 "/>
<path style=" stroke:none;fill-rule:nonzero;fill:rgb(100%,100%,100%);fill-opacity:1;" d="M 474.097656 332.09375 L 441.648438 332.09375 L 441.648438 205.554688 L 474.097656 205.554688 L 474.097656 332.09375 "/>
<path style=" stroke:none;fill-rule:nonzero;fill:rgb(100%,100%,100%);fill-opacity:1;" d="M 531.421875 332.09375 L 498.976562 332.09375 L 498.976562 205.554688 L 531.421875 205.554688 L 531.421875 332.09375 "/>
<path style=" stroke:none;fill-rule:nonzero;fill:rgb(100%,100%,100%);fill-opacity:1;" d="M 251.300781 429.253906 L 309.707031 429.253906 L 309.707031 370.851562 L 251.300781 370.851562 Z M 251.300781 429.253906 "/>
<path style=" stroke:none;fill-rule:nonzero;fill:rgb(100%,100%,100%);fill-opacity:1;" d="M 251.300781 509.730469 L 309.707031 509.730469 L 309.707031 451.324219 L 251.300781 451.324219 Z M 251.300781 509.730469 "/>
<path style=" stroke:none;fill-rule:nonzero;fill:rgb(100%,100%,100%);fill-opacity:1;" d="M 331.335938 429.253906 L 389.75 429.253906 L 389.75 370.851562 L 331.335938 370.851562 Z M 331.335938 429.253906 "/>
<path style=" stroke:none;fill-rule:nonzero;fill:rgb(100%,100%,100%);fill-opacity:1;" d="M 331.335938 509.730469 L 389.75 509.730469 L 389.75 451.324219 L 331.335938 451.324219 Z M 331.335938 509.730469 "/>
<path style=" stroke:none;fill-rule:nonzero;fill:rgb(100%,100%,100%);fill-opacity:1;" d="M 469.773438 429.253906 L 411.367188 429.253906 L 411.367188 370.851562 L 469.773438 370.851562 L 469.773438 429.253906 "/>
<path style=" stroke:none;fill-rule:nonzero;fill:rgb(100%,100%,100%);fill-opacity:1;" d="M 469.773438 509.730469 L 411.367188 509.730469 L 411.367188 451.324219 L 469.773438 451.324219 L 469.773438 509.730469 "/>
<path style=" stroke:none;fill-rule:nonzero;fill:rgb(100%,100%,100%);fill-opacity:1;" d="M 548.734375 429.253906 L 490.324219 429.253906 L 490.324219 370.851562 L 548.734375 370.851562 L 548.734375 429.253906 "/>
<path style=" stroke:none;fill-rule:nonzero;fill:rgb(100%,100%,100%);fill-opacity:1;" d="M 549.816406 509.730469 L 491.402344 509.730469 L 491.402344 451.324219 L 549.816406 451.324219 L 549.816406 509.730469 "/>
<g clip-path="url(#clip2)" clip-rule="nonzero">
<path style=" stroke:none;fill-rule:nonzero;fill:rgb(0%,0%,0%);fill-opacity:1;" d="M 404.71875 781.179688 C 196.800781 781.179688 28.25 612.636719 28.25 404.71875 C 28.25 196.808594 196.800781 28.257812 404.71875 28.257812 C 406.09375 28.257812 407.449219 28.339844 408.824219 28.359375 L 408.824219 205.554688 L 384.335938 205.554688 L 384.335938 257.160156 L 359.457031 257.160156 L 359.457031 205.554688 L 327.011719 205.554688 L 327.011719 257.160156 L 302.132812 257.160156 L 302.132812 205.554688 L 269.695312 205.554688 L 269.695312 257.160156 L 211.289062 257.160156 C 192.769531 257.160156 177.761719 272.183594 177.761719 290.695312 L 177.761719 562.167969 C 177.761719 580.6875 192.769531 595.695312 211.289062 595.695312 L 408.824219 595.695312 L 408.824219 781.078125 C 407.449219 781.097656 406.09375 781.179688 404.71875 781.179688 M 408.824219 554.050781 L 243.941406 554.050781 C 228.621094 554.050781 216.199219 541.625 216.199219 526.296875 L 216.199219 326.558594 C 216.199219 311.246094 228.621094 298.8125 243.941406 298.8125 L 269.695312 298.8125 L 269.695312 332.09375 L 302.132812 332.09375 L 302.132812 298.8125 L 327.011719 298.8125 L 327.011719 332.09375 L 359.457031 332.09375 L 359.457031 298.8125 L 384.335938 298.8125 L 384.335938 332.09375 L 408.824219 332.09375 L 408.824219 554.050781 M 331.335938 451.324219 L 331.335938 509.730469 L 389.75 509.730469 L 389.75 451.324219 L 331.335938 451.324219 M 251.300781 451.324219 L 251.300781 509.730469 L 309.707031 509.730469 L 309.707031 451.324219 L 251.300781 451.324219 M 331.335938 370.851562 L 331.335938 429.253906 L 389.75 429.253906 L 389.75 370.851562 L 331.335938 370.851562 M 251.300781 370.851562 L 251.300781 429.253906 L 309.707031 429.253906 L 309.707031 370.851562 L 251.300781 370.851562 "/>
</g>
<path style=" stroke:none;fill-rule:nonzero;fill:rgb(97.648621%,78.819275%,19.999695%);fill-opacity:1;" d="M 408.824219 595.695312 L 211.289062 595.695312 C 192.769531 595.695312 177.761719 580.6875 177.761719 562.167969 L 177.761719 290.695312 C 177.761719 272.183594 192.769531 257.160156 211.289062 257.160156 L 269.695312 257.160156 L 269.695312 298.8125 L 243.941406 298.8125 C 228.621094 298.8125 216.199219 311.246094 216.199219 326.558594 L 216.199219 526.296875 C 216.199219 541.625 228.621094 554.050781 243.941406 554.050781 L 408.824219 554.050781 L 408.824219 595.695312 M 384.335938 298.8125 L 359.457031 298.8125 L 359.457031 257.160156 L 384.335938 257.160156 L 384.335938 298.8125 M 327.011719 298.8125 L 302.132812 298.8125 L 302.132812 257.160156 L 327.011719 257.160156 L 327.011719 298.8125 "/>
<path style=" stroke:none;fill-rule:nonzero;fill:rgb(97.648621%,78.819275%,19.999695%);fill-opacity:1;" d="M 302.132812 332.09375 L 269.695312 332.09375 L 269.695312 205.554688 L 302.132812 205.554688 L 302.132812 332.09375 "/>
<path style=" stroke:none;fill-rule:nonzero;fill:rgb(97.648621%,78.819275%,19.999695%);fill-opacity:1;" d="M 359.457031 332.09375 L 327.011719 332.09375 L 327.011719 205.554688 L 359.457031 205.554688 L 359.457031 332.09375 "/>
<path style=" stroke:none;fill-rule:nonzero;fill:rgb(97.648621%,78.819275%,19.999695%);fill-opacity:1;" d="M 408.824219 332.09375 L 384.335938 332.09375 L 384.335938 205.554688 L 408.824219 205.554688 L 408.824219 332.09375 "/>
<path style=" stroke:none;fill-rule:nonzero;fill:rgb(97.648621%,78.819275%,19.999695%);fill-opacity:1;" d="M 251.300781 429.253906 L 309.707031 429.253906 L 309.707031 370.851562 L 251.300781 370.851562 Z M 251.300781 429.253906 "/>
<path style=" stroke:none;fill-rule:nonzero;fill:rgb(97.648621%,78.819275%,19.999695%);fill-opacity:1;" d="M 251.300781 509.730469 L 309.707031 509.730469 L 309.707031 451.324219 L 251.300781 451.324219 Z M 251.300781 509.730469 "/>
<path style=" stroke:none;fill-rule:nonzero;fill:rgb(97.648621%,78.819275%,19.999695%);fill-opacity:1;" d="M 331.335938 429.253906 L 389.75 429.253906 L 389.75 370.851562 L 331.335938 370.851562 Z M 331.335938 429.253906 "/>
<path style=" stroke:none;fill-rule:nonzero;fill:rgb(97.648621%,78.819275%,19.999695%);fill-opacity:1;" d="M 331.335938 509.730469 L 389.75 509.730469 L 389.75 451.324219 L 331.335938 451.324219 Z M 331.335938 509.730469 "/>
</g>
</svg>
