<?xml version="1.0" encoding="UTF-8"?>
<svg xmlns="http://www.w3.org/2000/svg" xmlns:xlink="http://www.w3.org/1999/xlink" width="810pt" height="809.999993pt" viewBox="0 0 810 809.999993" version="1.2">
<defs>
<clipPath id="clip1">
  <path d="M 32 10.097656 L 775 10.097656 L 775 799.847656 L 32 799.847656 Z M 32 10.097656 "/>
</clipPath>
</defs>
<g id="surface1">
<rect x="0" y="0" width="810" height="809.999993" style="fill:rgb(100%,100%,100%);fill-opacity:1;stroke:none;"/>
<rect x="0" y="0" width="810" height="809.999993" style="fill:rgb(100%,100%,100%);fill-opacity:1;stroke:none;"/>
<rect x="0" y="0" width="810" height="809.999993" style="fill:rgb(100%,100%,100%);fill-opacity:1;stroke:none;"/>
<g clip-path="url(#clip1)" clip-rule="nonzero">
<path style=" stroke:none;fill-rule:nonzero;fill:rgb(97.648621%,78.819275%,19.999695%);fill-opacity:1;" d="M 447.816406 394.421875 L 769.214844 229.511719 C 774.164062 226.976562 775.957031 220.851562 773.296875 215.996094 C 706.121094 93.1875 575.515625 10.003906 425.582031 10.53125 C 211.46875 11.273438 35.492188 185.371094 32.523438 399.496094 C 29.464844 619.996094 207.234375 799.722656 427.003906 799.722656 C 533.207031 799.722656 629.609375 757.746094 700.523438 689.472656 C 704.515625 685.636719 704.636719 679.265625 700.679688 675.367188 L 443.671875 421.613281 C 435.445312 413.480469 437.550781 399.714844 447.816406 394.421875 Z M 447.816406 394.421875 "/>
</g>
<path style=" stroke:none;fill-rule:nonzero;fill:rgb(0%,0%,0%);fill-opacity:1;" d="M 454.808594 223.449219 C 454.808594 224.964844 454.734375 226.476562 454.585938 227.984375 C 454.433594 229.496094 454.214844 230.992188 453.917969 232.476562 C 453.621094 233.964844 453.253906 235.433594 452.816406 236.882812 C 452.375 238.335938 451.863281 239.757812 451.285156 241.160156 C 450.703125 242.558594 450.058594 243.929688 449.34375 245.265625 C 448.628906 246.601562 447.851562 247.898438 447.007812 249.160156 C 446.167969 250.421875 445.265625 251.636719 444.304688 252.808594 C 443.34375 253.980469 442.328125 255.101562 441.253906 256.171875 C 440.183594 257.246094 439.0625 258.261719 437.890625 259.222656 C 436.71875 260.183594 435.503906 261.085938 434.246094 261.929688 C 432.984375 262.769531 431.6875 263.546875 430.351562 264.261719 C 429.011719 264.976562 427.644531 265.625 426.246094 266.203125 C 424.84375 266.785156 423.421875 267.296875 421.96875 267.734375 C 420.519531 268.175781 419.050781 268.542969 417.566406 268.839844 C 416.078125 269.132812 414.582031 269.355469 413.074219 269.503906 C 411.566406 269.652344 410.054688 269.726562 408.539062 269.726562 C 407.023438 269.726562 405.511719 269.652344 404.003906 269.503906 C 402.496094 269.355469 401 269.132812 399.511719 268.839844 C 398.027344 268.542969 396.558594 268.175781 395.109375 267.734375 C 393.660156 267.296875 392.234375 266.785156 390.832031 266.203125 C 389.433594 265.625 388.066406 264.976562 386.730469 264.261719 C 385.394531 263.546875 384.09375 262.769531 382.835938 261.929688 C 381.574219 261.085938 380.359375 260.183594 379.1875 259.222656 C 378.015625 258.261719 376.894531 257.246094 375.824219 256.171875 C 374.753906 255.101562 373.734375 253.980469 372.773438 252.808594 C 371.8125 251.636719 370.910156 250.421875 370.070312 249.160156 C 369.226562 247.898438 368.449219 246.601562 367.734375 245.265625 C 367.019531 243.929688 366.375 242.558594 365.792969 241.160156 C 365.214844 239.757812 364.703125 238.335938 364.265625 236.882812 C 363.824219 235.433594 363.457031 233.964844 363.160156 232.476562 C 362.867188 230.992188 362.644531 229.496094 362.496094 227.984375 C 362.347656 226.476562 362.273438 224.964844 362.273438 223.449219 C 362.273438 221.933594 362.347656 220.421875 362.496094 218.914062 C 362.644531 217.40625 362.867188 215.910156 363.160156 214.421875 C 363.457031 212.933594 363.824219 211.46875 364.265625 210.015625 C 364.703125 208.566406 365.214844 207.140625 365.792969 205.742188 C 366.375 204.339844 367.019531 202.972656 367.734375 201.636719 C 368.449219 200.296875 369.226562 199 370.070312 197.738281 C 370.910156 196.480469 371.8125 195.261719 372.773438 194.09375 C 373.734375 192.921875 374.753906 191.796875 375.824219 190.726562 C 376.894531 189.65625 378.015625 188.636719 379.1875 187.675781 C 380.359375 186.714844 381.574219 185.8125 382.835938 184.972656 C 384.09375 184.128906 385.394531 183.351562 386.730469 182.636719 C 388.066406 181.921875 389.433594 181.273438 390.832031 180.695312 C 392.234375 180.113281 393.660156 179.605469 395.109375 179.164062 C 396.558594 178.726562 398.027344 178.359375 399.511719 178.0625 C 401 177.765625 402.496094 177.542969 404.003906 177.394531 C 405.511719 177.246094 407.023438 177.171875 408.539062 177.171875 C 410.054688 177.171875 411.566406 177.246094 413.074219 177.394531 C 414.582031 177.542969 416.078125 177.765625 417.566406 178.0625 C 419.050781 178.359375 420.519531 178.726562 421.96875 179.164062 C 423.421875 179.605469 424.84375 180.117188 426.246094 180.695312 C 427.644531 181.273438 429.011719 181.921875 430.351562 182.636719 C 431.6875 183.351562 432.984375 184.128906 434.246094 184.972656 C 435.503906 185.8125 436.71875 186.714844 437.890625 187.675781 C 439.0625 188.636719 440.183594 189.65625 441.253906 190.726562 C 442.328125 191.796875 443.34375 192.921875 444.304688 194.09375 C 445.265625 195.261719 446.167969 196.480469 447.007812 197.738281 C 447.851562 199 448.628906 200.296875 449.34375 201.636719 C 450.058594 202.972656 450.703125 204.339844 451.285156 205.742188 C 451.863281 207.140625 452.375 208.566406 452.816406 210.015625 C 453.253906 211.46875 453.621094 212.933594 453.917969 214.421875 C 454.214844 215.910156 454.433594 217.40625 454.585938 218.914062 C 454.734375 220.421875 454.808594 221.933594 454.808594 223.449219 Z M 454.808594 223.449219 "/>
<path style=" stroke:none;fill-rule:nonzero;fill:rgb(0%,0%,0%);fill-opacity:1;" d="M 780.378906 439.988281 C 780.378906 442.007812 780.28125 444.023438 780.082031 446.03125 C 779.882812 448.042969 779.589844 450.035156 779.195312 452.015625 C 778.800781 453.996094 778.3125 455.953125 777.726562 457.886719 C 777.140625 459.816406 776.460938 461.71875 775.6875 463.582031 C 774.914062 465.449219 774.050781 467.269531 773.101562 469.050781 C 772.148438 470.832031 771.113281 472.5625 769.992188 474.242188 C 768.871094 475.921875 767.667969 477.539062 766.386719 479.101562 C 765.105469 480.660156 763.753906 482.15625 762.324219 483.582031 C 760.898438 485.011719 759.40625 486.367188 757.84375 487.648438 C 756.285156 488.929688 754.664062 490.128906 752.984375 491.25 C 751.308594 492.371094 749.578125 493.410156 747.796875 494.363281 C 746.015625 495.3125 744.195312 496.175781 742.328125 496.949219 C 740.464844 497.722656 738.566406 498.402344 736.632812 498.988281 C 734.703125 499.574219 732.746094 500.0625 730.765625 500.457031 C 728.785156 500.851562 726.792969 501.148438 724.78125 501.34375 C 722.773438 501.542969 720.761719 501.640625 718.742188 501.640625 C 716.722656 501.640625 714.707031 501.542969 712.699219 501.34375 C 710.691406 501.148438 708.695312 500.851562 706.714844 500.457031 C 704.734375 500.0625 702.78125 499.574219 700.847656 498.988281 C 698.917969 498.402344 697.019531 497.722656 695.152344 496.949219 C 693.289062 496.175781 691.464844 495.3125 689.683594 494.363281 C 687.90625 493.410156 686.175781 492.371094 684.496094 491.25 C 682.816406 490.128906 681.199219 488.929688 679.636719 487.648438 C 678.078125 486.367188 676.582031 485.011719 675.15625 483.582031 C 673.730469 482.15625 672.375 480.660156 671.09375 479.101562 C 669.8125 477.539062 668.613281 475.921875 667.492188 474.242188 C 666.367188 472.5625 665.332031 470.832031 664.382812 469.050781 C 663.429688 467.269531 662.566406 465.449219 661.792969 463.582031 C 661.023438 461.71875 660.34375 459.816406 659.757812 457.886719 C 659.171875 455.953125 658.679688 453.996094 658.285156 452.015625 C 657.894531 450.035156 657.597656 448.042969 657.398438 446.03125 C 657.203125 444.023438 657.101562 442.007812 657.101562 439.988281 C 657.101562 437.96875 657.203125 435.957031 657.398438 433.945312 C 657.597656 431.9375 657.894531 429.941406 658.285156 427.960938 C 658.679688 425.980469 659.171875 424.023438 659.757812 422.09375 C 660.34375 420.160156 661.023438 418.261719 661.792969 416.394531 C 662.566406 414.53125 663.429688 412.707031 664.378906 410.925781 C 665.332031 409.144531 666.367188 407.417969 667.492188 405.738281 C 668.613281 404.058594 669.8125 402.4375 671.09375 400.878906 C 672.375 399.316406 673.730469 397.824219 675.15625 396.394531 C 676.582031 394.96875 678.078125 393.613281 679.636719 392.332031 C 681.199219 391.050781 682.816406 389.851562 684.496094 388.726562 C 686.175781 387.605469 687.90625 386.570312 689.683594 385.617188 C 691.464844 384.664062 693.289062 383.804688 695.152344 383.03125 C 697.019531 382.257812 698.917969 381.578125 700.847656 380.992188 C 702.78125 380.40625 704.734375 379.917969 706.714844 379.523438 C 708.695312 379.128906 710.691406 378.832031 712.699219 378.632812 C 714.707031 378.4375 716.722656 378.335938 718.742188 378.335938 C 720.761719 378.335938 722.773438 378.4375 724.78125 378.632812 C 726.792969 378.832031 728.785156 379.128906 730.765625 379.523438 C 732.746094 379.917969 734.703125 380.40625 736.632812 380.992188 C 738.566406 381.578125 740.464844 382.257812 742.328125 383.03125 C 744.195312 383.804688 746.015625 384.664062 747.796875 385.617188 C 749.578125 386.570312 751.308594 387.605469 752.984375 388.726562 C 754.664062 389.851562 756.285156 391.050781 757.84375 392.332031 C 759.40625 393.613281 760.898438 394.96875 762.324219 396.394531 C 763.753906 397.824219 765.105469 399.316406 766.386719 400.878906 C 767.667969 402.4375 768.871094 404.058594 769.992188 405.738281 C 771.113281 407.417969 772.148438 409.144531 773.101562 410.925781 C 774.050781 412.707031 774.914062 414.53125 775.6875 416.394531 C 776.460938 418.261719 777.140625 420.160156 777.726562 422.09375 C 778.3125 424.023438 778.800781 425.980469 779.195312 427.960938 C 779.589844 429.941406 779.882812 431.9375 780.082031 433.945312 C 780.28125 435.957031 780.378906 437.96875 780.378906 439.988281 Z M 780.378906 439.988281 "/>
</g>
</svg>
