<?xml version="1.0" encoding="UTF-8"?>
<svg xmlns="http://www.w3.org/2000/svg" xmlns:xlink="http://www.w3.org/1999/xlink" width="810pt" height="809.999993pt" viewBox="0 0 810 809.999993" version="1.2">
<defs>
<clipPath id="clip1">
  <path d="M 64 74 L 746 74 L 746 761.894531 L 64 761.894531 Z M 64 74 "/>
</clipPath>
<clipPath id="clip2">
  <path d="M 269 47.894531 L 541 47.894531 L 541 274 L 269 274 Z M 269 47.894531 "/>
</clipPath>
</defs>
<g id="surface1">
<rect x="0" y="0" width="810" height="809.999993" style="fill:rgb(100%,100%,100%);fill-opacity:1;stroke:none;"/>
<rect x="0" y="0" width="810" height="809.999993" style="fill:rgb(100%,100%,100%);fill-opacity:1;stroke:none;"/>
<g clip-path="url(#clip1)" clip-rule="nonzero">
<path style=" stroke:none;fill-rule:nonzero;fill:rgb(0%,0%,0%);fill-opacity:1;" d="M 351.710938 748.496094 C 330.882812 757.109375 306.222656 761.894531 279.886719 761.894531 C 253.550781 761.894531 221.226562 756.871094 200.15625 748.496094 L 200.398438 748.496094 L 200.398438 652.785156 C 200.398438 652.785156 116.839844 550.851562 83.800781 484.335938 C 48.84375 413.988281 64.40625 307.269531 99.363281 216.585938 C 135.753906 122.070312 159.21875 66.558594 196.566406 75.890625 C 239.421875 86.417969 214.042969 150.304688 188.1875 230.703125 C 152.511719 341.007812 214.285156 429.539062 245.167969 442.460938 C 276.054688 455.382812 246.605469 395.324219 229.605469 331.4375 C 219.3125 292.675781 265.757812 260.371094 294.25 326.171875 C 333.753906 417.816406 353.148438 464.953125 351.472656 545.589844 C 350.753906 593.921875 351.710938 748.496094 351.710938 748.496094 Z M 458.253906 748.496094 C 479.082031 757.109375 503.742188 761.894531 530.078125 761.894531 C 556.417969 761.894531 588.738281 756.871094 609.808594 748.496094 L 609.566406 748.496094 L 609.566406 652.785156 C 609.566406 652.785156 693.125 550.851562 726.164062 484.335938 C 761.121094 413.988281 745.558594 307.269531 710.601562 216.585938 C 674.449219 122.070312 650.746094 66.558594 613.398438 75.890625 C 570.542969 86.417969 595.921875 150.304688 621.777344 230.703125 C 657.453125 341.007812 595.679688 429.539062 564.796875 442.460938 C 533.910156 455.382812 563.359375 395.324219 580.359375 331.4375 C 590.652344 292.675781 544.207031 260.371094 515.714844 326.171875 C 476.210938 417.816406 456.816406 464.953125 458.492188 545.589844 C 459.210938 593.921875 458.253906 748.496094 458.253906 748.496094 Z M 458.253906 748.496094 "/>
</g>
<g clip-path="url(#clip2)" clip-rule="nonzero">
<path style=" stroke:none;fill-rule:nonzero;fill:rgb(97.648621%,78.819275%,19.999695%);fill-opacity:1;" d="M 359.371094 184.28125 C 397.441406 222.085938 384.992188 271.855469 384.992188 271.855469 C 384.992188 271.855469 335.429688 284.300781 297.363281 246.253906 C 259.296875 208.210938 271.984375 158.679688 271.984375 158.679688 C 271.984375 158.679688 321.542969 146.476562 359.371094 184.28125 Z M 450.59375 184.042969 C 412.761719 221.847656 424.972656 271.617188 424.972656 271.617188 C 424.972656 271.617188 474.535156 284.058594 512.601562 246.015625 C 550.671875 207.96875 538.21875 158.679688 538.21875 158.679688 C 538.21875 158.679688 488.660156 146.238281 450.59375 184.042969 Z M 361.289062 127.8125 C 361.289062 181.410156 405.101562 207.730469 405.101562 207.730469 C 405.101562 207.730469 448.917969 181.410156 448.917969 127.8125 C 448.917969 74.214844 405.101562 47.894531 405.101562 47.894531 C 405.101562 47.894531 361.289062 74.214844 361.289062 127.8125 Z M 361.289062 127.8125 "/>
</g>
</g>
</svg>
