<?xml version="1.0" encoding="UTF-8"?>
<svg xmlns="http://www.w3.org/2000/svg" xmlns:xlink="http://www.w3.org/1999/xlink" width="810pt" height="809.999993pt" viewBox="0 0 810 809.999993" version="1.2">
<defs>
<clipPath id="clip1">
  <path d="M 170.058594 32.617188 L 574 32.617188 L 574 671 L 170.058594 671 Z M 170.058594 32.617188 "/>
</clipPath>
<clipPath id="clip2">
  <path d="M 328 615 L 415 615 L 415 777.367188 L 328 777.367188 Z M 328 615 "/>
</clipPath>
</defs>
<g id="surface1">
<rect x="0" y="0" width="810" height="809.999993" style="fill:rgb(100%,100%,100%);fill-opacity:1;stroke:none;"/>
<rect x="0" y="0" width="810" height="809.999993" style="fill:rgb(100%,100%,100%);fill-opacity:1;stroke:none;"/>
<g clip-path="url(#clip1)" clip-rule="nonzero">
<path style=" stroke:none;fill-rule:nonzero;fill:rgb(0%,0%,0%);fill-opacity:1;" d="M 375.8125 670.878906 C 320.113281 670.878906 182.472656 660.570312 170.269531 473.222656 C 170.269531 473.222656 205.914062 547.890625 205.988281 539.109375 C 206.15625 510.628906 170.269531 406.320312 259.988281 335.28125 C 369.734375 248.394531 336.605469 141.761719 310.476562 139.707031 C 310.476562 139.707031 380.726562 131.296875 387.121094 241.425781 C 390.605469 301.3125 433.296875 128.386719 408.042969 32.652344 C 408.042969 32.652344 536.261719 112.941406 520.378906 310.613281 C 520.378906 310.589844 540.210938 265.804688 573.507812 289.734375 C 573.507812 289.734375 552.609375 298.226562 559.582031 364.113281 C 566.53125 429.996094 597.019531 670.867188 375.8125 670.867188 "/>
</g>
<path style=" stroke:none;fill-rule:nonzero;fill:rgb(100%,100%,100%);fill-opacity:1;" d="M 359.269531 664.03125 C 323.261719 662.097656 254.757812 652.707031 254.757812 546.679688 C 254.757812 440.65625 344.453125 426.257812 344.453125 328.457031 C 344.453125 328.457031 387.121094 345.953125 382.785156 394.34375 C 382.785156 394.34375 466.375 332.570312 459.425781 259.476562 C 459.425781 259.476562 640.269531 679.25 359.269531 664.03125 "/>
<path style=" stroke:none;fill-rule:nonzero;fill:rgb(97.648621%,78.819275%,19.999695%);fill-opacity:1;" d="M 359.269531 664.03125 C 323.261719 662.097656 254.757812 652.707031 254.757812 546.679688 C 254.757812 440.65625 344.453125 426.257812 344.453125 328.457031 C 344.453125 328.457031 387.121094 345.953125 382.785156 394.34375 C 382.785156 394.34375 466.375 332.570312 459.425781 259.476562 C 459.425781 259.476562 640.269531 679.25 359.269531 664.03125 "/>
<g clip-path="url(#clip2)" clip-rule="nonzero">
<path style=" stroke:none;fill-rule:nonzero;fill:rgb(97.648621%,78.819275%,19.999695%);fill-opacity:1;" d="M 414.917969 777.316406 L 328.855469 777.316406 L 328.855469 615.589844 L 414.917969 615.589844 L 414.917969 777.316406 "/>
</g>
<path style=" stroke:none;fill-rule:nonzero;fill:rgb(0%,0%,0%);fill-opacity:1;" d="M 439.496094 578.765625 C 439.496094 629.648438 409.226562 670.878906 371.886719 670.878906 C 334.546875 670.878906 304.277344 629.648438 304.277344 578.765625 C 304.277344 527.882812 334.546875 486.628906 371.886719 486.628906 C 409.226562 486.628906 439.496094 527.882812 439.496094 578.765625 "/>
<path style=" stroke:none;fill-rule:nonzero;fill:rgb(0%,0%,0%);fill-opacity:1;" d="M 405.257812 522.460938 C 411.84375 522.460938 411.84375 512.226562 405.257812 512.226562 C 398.621094 512.226562 398.621094 522.460938 405.257812 522.460938 "/>
<path style=" stroke:none;fill-rule:nonzero;fill:rgb(0%,0%,0%);fill-opacity:1;" d="M 412.425781 543.972656 C 419.011719 543.972656 419.011719 533.710938 412.425781 533.710938 C 405.8125 533.710938 405.8125 543.972656 412.425781 543.972656 "/>
<path style=" stroke:none;fill-rule:nonzero;fill:rgb(0%,0%,0%);fill-opacity:1;" d="M 416.855469 569.207031 C 423.441406 569.207031 423.441406 558.972656 416.855469 558.972656 C 410.246094 558.972656 410.246094 569.207031 416.855469 569.207031 "/>
<path style=" stroke:none;fill-rule:nonzero;fill:rgb(0%,0%,0%);fill-opacity:1;" d="M 418.210938 592.074219 C 424.824219 592.074219 424.824219 581.839844 418.210938 581.839844 C 411.601562 581.839844 411.601562 592.074219 418.210938 592.074219 "/>
<path style=" stroke:none;fill-rule:nonzero;fill:rgb(0%,0%,0%);fill-opacity:1;" d="M 413.101562 621.398438 C 419.6875 621.398438 419.6875 611.164062 413.101562 611.164062 C 406.492188 611.164062 406.492188 621.398438 413.101562 621.398438 "/>
<path style=" stroke:none;fill-rule:nonzero;fill:rgb(0%,0%,0%);fill-opacity:1;" d="M 402.519531 644.941406 C 409.105469 644.941406 409.105469 634.707031 402.519531 634.707031 C 395.910156 634.707031 395.910156 644.941406 402.519531 644.941406 "/>
<path style=" stroke:none;fill-rule:nonzero;fill:rgb(0%,0%,0%);fill-opacity:1;" d="M 390.898438 622.074219 C 397.507812 622.074219 397.507812 611.839844 390.898438 611.839844 C 384.308594 611.839844 384.308594 622.074219 390.898438 622.074219 "/>
<path style=" stroke:none;fill-rule:nonzero;fill:rgb(0%,0%,0%);fill-opacity:1;" d="M 397.046875 601.265625 C 403.660156 601.265625 403.660156 591.03125 397.046875 591.03125 C 390.4375 591.03125 390.4375 601.265625 397.046875 601.265625 "/>
<path style=" stroke:none;fill-rule:nonzero;fill:rgb(0%,0%,0%);fill-opacity:1;" d="M 399.105469 580.796875 C 405.691406 580.796875 405.691406 570.5625 399.105469 570.5625 C 392.496094 570.5625 392.496094 580.796875 399.105469 580.796875 "/>
<path style=" stroke:none;fill-rule:nonzero;fill:rgb(0%,0%,0%);fill-opacity:1;" d="M 400.121094 556.238281 C 406.710938 556.238281 406.710938 546.003906 400.121094 546.003906 C 393.511719 546.003906 393.511719 556.238281 400.121094 556.238281 "/>
<path style=" stroke:none;fill-rule:nonzero;fill:rgb(0%,0%,0%);fill-opacity:1;" d="M 394.988281 536.445312 C 401.601562 536.445312 401.601562 526.210938 394.988281 526.210938 C 388.378906 526.210938 388.378906 536.445312 394.988281 536.445312 "/>
</g>
</svg>
