<?xml version="1.0" encoding="UTF-8"?>
<svg xmlns="http://www.w3.org/2000/svg" xmlns:xlink="http://www.w3.org/1999/xlink" width="810pt" height="809.999993pt" viewBox="0 0 810 809.999993" version="1.2">
<defs>
<clipPath id="clip1">
  <path d="M 144.128906 13.449219 L 666 13.449219 L 666 796.449219 L 144.128906 796.449219 Z M 144.128906 13.449219 "/>
</clipPath>
</defs>
<g id="surface1">
<rect x="0" y="0" width="810" height="809.999993" style="fill:rgb(100%,100%,100%);fill-opacity:1;stroke:none;"/>
<rect x="0" y="0" width="810" height="809.999993" style="fill:rgb(100%,100%,100%);fill-opacity:1;stroke:none;"/>
<path style=" stroke:none;fill-rule:nonzero;fill:rgb(0%,0%,0%);fill-opacity:1;" d="M 405.5 17.359375 C 405.273438 17.359375 405.046875 17.359375 404.828125 17.359375 C 404.601562 17.359375 404.382812 17.359375 404.164062 17.359375 C 262.808594 17.519531 148.328125 132.179688 148.519531 273.410156 C 148.554688 304.144531 163.902344 376.054688 198.660156 437.566406 C 242.121094 514.503906 384.601562 767.710938 404.898438 791.664062 C 404.898438 791.664062 405.371094 792.785156 405.613281 792.496094 C 405.859375 792.785156 406.269531 791.664062 406.269531 791.664062 C 426.550781 767.640625 567.28125 513.34375 611.972656 437.097656 C 649.058594 373.75 661.746094 303.550781 661.738281 272.839844 C 661.5625 131.578125 546.847656 17.195312 405.5 17.359375 "/>
<g clip-path="url(#clip1)" clip-rule="nonzero">
<path style=" stroke:none;fill-rule:nonzero;fill:rgb(97.648621%,78.819275%,19.999695%);fill-opacity:1;" d="M 405.5 17.359375 L 405.5 13.445312 C 405.273438 13.445312 405.046875 13.445312 404.828125 13.445312 C 404.601562 13.445312 404.382812 13.445312 404.164062 13.445312 C 260.765625 13.613281 144.601562 129.820312 144.601562 273.050781 L 144.601562 273.460938 L 148.519531 273.410156 L 144.601562 273.417969 C 144.613281 281.414062 145.609375 291.832031 147.621094 304.011719 C 153.664062 340.523438 168.886719 392.816406 195.25 439.492188 C 216.980469 477.957031 263.464844 560.503906 307.066406 636.429688 C 328.867188 674.398438 349.949219 710.710938 366.859375 739.050781 C 375.316406 753.222656 382.730469 765.40625 388.6875 774.816406 C 391.660156 779.527344 394.265625 783.539062 396.476562 786.78125 C 398.6875 790.03125 400.464844 792.488281 401.90625 794.191406 L 404.898438 791.664062 L 401.285156 793.167969 C 401.320312 793.246094 401.445312 793.5625 401.699219 794.015625 C 401.835938 794.261719 401.984375 794.53125 402.335938 794.933594 C 402.511719 795.144531 402.738281 795.398438 403.175781 795.710938 C 403.394531 795.859375 403.671875 796.027344 404.058594 796.183594 C 404.433594 796.324219 404.933594 796.453125 405.519531 796.453125 C 406.140625 796.464844 406.796875 796.296875 407.3125 796.035156 C 407.835938 795.773438 408.210938 795.449219 408.484375 795.160156 L 405.613281 792.496094 L 402.667969 795.082031 C 402.957031 795.40625 403.375 795.765625 403.917969 796.035156 C 404.460938 796.304688 405.117188 796.464844 405.703125 796.453125 C 406.304688 796.453125 406.820312 796.324219 407.214844 796.15625 C 407.957031 795.851562 408.324219 795.5 408.597656 795.25 C 409.050781 794.785156 409.21875 794.496094 409.367188 794.242188 C 409.585938 793.875 409.699219 793.613281 409.792969 793.40625 C 409.882812 793.203125 409.933594 793.0625 409.953125 793.011719 L 406.269531 791.664062 L 409.269531 794.183594 C 410.714844 792.46875 412.488281 790.003906 414.683594 786.746094 C 422.886719 774.554688 436.832031 751.308594 453.902344 722.035156 C 505.054688 634.261719 583.972656 492.597656 615.347656 439.070312 C 634.105469 407.035156 646.65625 373.355469 654.542969 343.765625 C 662.421875 314.167969 665.648438 288.738281 665.65625 272.875 L 665.648438 272.761719 L 661.816406 272.859375 L 665.535156 273.792969 C 665.707031 273.015625 665.636719 272.761719 665.648438 272.761719 L 661.816406 272.859375 L 665.535156 273.792969 C 665.613281 273.46875 665.65625 273.164062 665.65625 272.839844 C 665.480469 129.515625 549.179688 13.445312 405.808594 13.445312 L 405.457031 13.445312 L 405.5 17.359375 L 405.5 13.445312 L 405.5 17.359375 L 405.535156 21.277344 L 405.808594 21.277344 C 544.851562 21.277344 657.65625 133.847656 657.820312 272.847656 L 661.738281 272.839844 L 657.933594 271.886719 C 657.8125 272.421875 657.820312 272.710938 657.820312 272.859375 L 657.820312 272.964844 L 661.414062 272.867188 L 657.820312 272.875 L 657.820312 272.964844 L 661.414062 272.867188 L 657.820312 272.875 C 657.828125 287.730469 654.707031 312.761719 646.96875 341.753906 C 639.238281 370.769531 626.910156 403.835938 608.589844 435.113281 C 586.203125 473.308594 539.859375 555.925781 496.558594 632.023438 C 474.914062 670.074219 454.03125 706.488281 437.304688 734.863281 C 428.945312 749.046875 421.625 761.226562 415.777344 770.578125 C 412.855469 775.261719 410.300781 779.230469 408.1875 782.375 C 406.070312 785.511719 404.363281 787.847656 403.28125 789.140625 C 402.972656 789.488281 402.753906 789.875 402.597656 790.3125 L 404.09375 790.863281 L 402.605469 790.285156 L 402.597656 790.3125 L 404.09375 790.863281 L 402.605469 790.285156 L 402.589844 790.320312 L 402.589844 790.328125 L 404.050781 791.019531 L 402.738281 790.082031 C 402.582031 790.320312 402.589844 790.328125 402.589844 790.328125 L 404.050781 791.019531 L 402.738281 790.082031 L 405.386719 791.980469 L 403.304688 789.480469 C 402.957031 789.777344 402.835938 789.960938 402.738281 790.082031 L 405.386719 791.980469 L 403.304688 789.480469 L 405.648438 792.292969 L 404.121094 788.964844 C 403.742188 789.148438 403.488281 789.332031 403.304688 789.480469 L 405.648438 792.292969 L 404.121094 788.964844 L 405.703125 792.410156 L 405.703125 788.625 C 405.046875 788.625 404.503906 788.789062 404.121094 788.964844 L 405.703125 792.410156 L 405.703125 788.625 L 405.703125 792.433594 L 407.398438 789.019531 C 406.882812 788.765625 406.261719 788.625 405.703125 788.625 L 405.703125 792.433594 L 407.398438 789.019531 L 405.71875 792.398438 L 408.554688 789.910156 C 408.289062 789.613281 407.90625 789.28125 407.398438 789.019531 L 405.71875 792.398438 L 408.554688 789.910156 C 407.828125 789.078125 406.769531 788.597656 405.667969 788.582031 C 404.558594 788.5625 403.488281 789.019531 402.738281 789.832031 L 405.5 792.390625 L 403.824219 789.027344 C 403.332031 789.269531 402.984375 789.578125 402.738281 789.832031 L 405.5 792.390625 L 403.824219 789.027344 L 405.519531 792.433594 L 405.519531 788.625 C 404.941406 788.625 404.3125 788.773438 403.824219 789.027344 L 405.519531 792.433594 L 405.519531 788.625 L 405.519531 792.398438 L 406.890625 788.878906 C 406.542969 788.746094 406.078125 788.625 405.519531 788.625 L 405.519531 792.398438 L 406.890625 788.878906 L 405.589844 792.242188 L 408.046875 789.59375 C 407.84375 789.417969 407.546875 789.148438 406.890625 788.878906 L 405.589844 792.242188 L 408.046875 789.59375 L 406.140625 791.648438 L 408.492188 790.117188 C 408.4375 790.050781 408.378906 789.917969 408.046875 789.59375 L 406.140625 791.648438 L 408.492188 790.117188 L 407.679688 790.644531 L 408.535156 790.179688 L 408.492188 790.117188 L 407.679688 790.644531 L 408.535156 790.179688 L 408.507812 790.136719 L 408.5 790.128906 L 406.945312 790.808594 L 408.507812 790.144531 L 408.5 790.128906 L 406.945312 790.808594 L 408.507812 790.144531 C 408.359375 789.777344 408.152344 789.4375 407.886719 789.132812 C 406.796875 787.847656 405.082031 785.511719 402.957031 782.386719 C 394.9375 770.597656 380.851562 747.4375 363.675781 718.339844 C 312.136719 630.976562 232.632812 489.738281 202.070312 435.644531 C 184.890625 405.242188 172.453125 372.148438 164.347656 342.898438 C 160.289062 328.269531 157.308594 314.613281 155.351562 302.734375 C 153.382812 290.867188 152.4375 280.777344 152.4375 273.398438 L 152.4375 273.050781 C 152.429688 134.148438 265.101562 21.425781 404.164062 21.277344 C 404.382812 21.277344 404.601562 21.277344 404.828125 21.277344 C 405.046875 21.277344 405.273438 21.277344 405.5 21.277344 L 405.535156 21.277344 L 405.5 17.359375 "/>
</g>
<path style=" stroke:none;fill-rule:nonzero;fill:rgb(97.648621%,78.819275%,19.999695%);fill-opacity:1;" d="M 598.121094 273.996094 C 598.121094 382.941406 509.734375 471.265625 400.726562 471.265625 C 291.710938 471.265625 203.332031 382.941406 203.332031 273.996094 C 203.332031 165.046875 291.710938 76.734375 400.726562 76.734375 C 509.734375 76.734375 598.121094 165.046875 598.121094 273.996094 "/>
<path style=" stroke:none;fill-rule:nonzero;fill:rgb(97.648621%,78.819275%,19.999695%);fill-opacity:1;" d="M 598.121094 273.996094 L 594.207031 273.996094 C 594.207031 327.398438 572.554688 375.714844 537.53125 410.722656 C 502.503906 445.710938 454.164062 467.351562 400.726562 467.351562 C 347.289062 467.351562 298.941406 445.710938 263.910156 410.722656 C 228.898438 375.714844 207.25 327.398438 207.25 273.996094 C 207.25 220.589844 228.898438 172.28125 263.910156 137.273438 C 298.941406 102.277344 347.289062 80.648438 400.726562 80.648438 C 454.164062 80.648438 502.503906 102.277344 537.53125 137.273438 C 572.554688 172.28125 594.207031 220.589844 594.207031 273.996094 L 602.039062 273.996094 C 602.03125 162.890625 511.902344 72.816406 400.726562 72.808594 C 289.542969 72.816406 199.414062 162.890625 199.414062 273.996094 C 199.414062 385.109375 289.542969 475.179688 400.726562 475.179688 C 511.902344 475.179688 602.03125 385.109375 602.039062 273.996094 L 598.121094 273.996094 "/>
<path style=" stroke:none;fill-rule:nonzero;fill:rgb(0%,0%,0%);fill-opacity:1;" d="M 528.734375 198.570312 L 528.734375 353.097656 L 420.769531 353.097656 C 420.769531 353.097656 402.316406 355.117188 399.765625 365.035156 L 399.746094 365.070312 L 399.765625 365.035156 C 399.773438 364.914062 399.878906 364.378906 399.273438 362.84375 C 394.691406 351.351562 377.773438 350.886719 377.773438 350.886719 L 269.796875 350.886719 L 269.796875 198.570312 L 252.117188 198.570312 L 252.117188 369.535156 L 378.789062 369.535156 C 379.214844 374.324219 388.214844 378.214844 399.273438 378.214844 C 410.335938 378.214844 419.300781 374.324219 419.753906 369.535156 L 546.425781 369.535156 L 546.425781 198.570312 L 528.734375 198.570312 "/>
<path style=" stroke:none;fill-rule:nonzero;fill:rgb(0%,0%,0%);fill-opacity:1;" d="M 392.734375 178.636719 C 389.875 176.207031 385.519531 174.039062 379.015625 174.039062 C 364.550781 174.039062 280.429688 174.039062 280.429688 174.039062 L 280.429688 339.988281 L 377.9375 339.988281 C 377.9375 339.988281 386.675781 340.269531 392.734375 344.867188 L 392.734375 178.636719 "/>
<path style=" stroke:none;fill-rule:nonzero;fill:rgb(0%,0%,0%);fill-opacity:1;" d="M 405.796875 178.636719 C 408.640625 176.207031 413.019531 174.039062 419.519531 174.039062 C 433.9375 174.039062 518.113281 174.039062 518.113281 174.039062 L 518.113281 339.988281 L 420.578125 339.988281 C 420.578125 339.988281 411.867188 340.269531 405.796875 344.867188 L 405.796875 178.636719 "/>
</g>
</svg>
