<?xml version="1.0" encoding="UTF-8"?>
<svg xmlns="http://www.w3.org/2000/svg" xmlns:xlink="http://www.w3.org/1999/xlink" width="810pt" height="809.999993pt" viewBox="0 0 810 809.999993" version="1.2">
<defs>
<clipPath id="clip1">
  <path d="M 117 33.332031 L 692.957031 33.332031 L 692.957031 776.582031 L 117 776.582031 Z M 117 33.332031 "/>
</clipPath>
</defs>
<g id="surface1">
<rect x="0" y="0" width="810" height="809.999993" style="fill:rgb(100%,100%,100%);fill-opacity:1;stroke:none;"/>
<rect x="0" y="0" width="810" height="809.999993" style="fill:rgb(100%,100%,100%);fill-opacity:1;stroke:none;"/>
<g clip-path="url(#clip1)" clip-rule="nonzero">
<path style=" stroke:none;fill-rule:nonzero;fill:rgb(0%,0%,0%);fill-opacity:1;" d="M 404.957031 776.582031 C 393.71875 776.582031 382.949219 771.246094 376.160156 762.300781 L 175.742188 498.097656 C 138 448.367188 117.257812 386.601562 117.257812 324.179688 L 117.257812 321.042969 C 117.257812 162.390625 246.3125 33.332031 404.957031 33.332031 C 563.605469 33.332031 692.660156 162.390625 692.660156 321.042969 L 692.660156 324.179688 C 692.660156 386.601562 671.914062 448.367188 634.171875 498.097656 L 433.757812 762.300781 C 426.964844 771.246094 416.195312 776.582031 404.957031 776.582031 "/>
</g>
<path style=" stroke:none;fill-rule:nonzero;fill:rgb(97.648621%,78.819275%,19.999695%);fill-opacity:1;" d="M 404.957031 512.847656 C 299.175781 512.847656 213.15625 426.828125 213.15625 321.042969 C 213.15625 215.257812 299.175781 129.234375 404.957031 129.234375 C 510.738281 129.234375 596.757812 215.257812 596.757812 321.042969 C 596.757812 426.828125 510.738281 512.847656 404.957031 512.847656 Z M 404.957031 105.261719 C 285.972656 105.261719 189.183594 202.054688 189.183594 321.042969 C 189.183594 440.03125 285.972656 536.824219 404.957031 536.824219 C 523.945312 536.824219 620.734375 440.03125 620.734375 321.042969 C 620.734375 202.054688 523.945312 105.261719 404.957031 105.261719 "/>
<path style=" stroke:none;fill-rule:nonzero;fill:rgb(97.648621%,78.819275%,19.999695%);fill-opacity:1;" d="M 500.859375 416.945312 L 452.90625 416.945312 L 452.90625 321.042969 L 357.007812 321.042969 L 357.007812 416.945312 L 309.058594 416.945312 L 309.058594 272.4375 L 404.957031 203.925781 L 500.859375 272.4375 Z M 428.933594 416.945312 L 380.984375 416.945312 L 380.984375 345.019531 L 428.933594 345.019531 Z M 404.957031 174.425781 L 230.15625 299.316406 L 244.109375 318.796875 L 285.082031 289.527344 L 285.082031 440.921875 L 524.832031 440.921875 L 524.832031 289.527344 L 565.804688 318.796875 L 579.761719 299.316406 L 404.957031 174.425781 "/>
<path style=" stroke:none;fill-rule:nonzero;fill:rgb(97.648621%,78.819275%,19.999695%);fill-opacity:1;" d="M 392.96875 632.726562 L 416.945312 632.726562 L 416.945312 608.753906 L 392.96875 608.753906 L 392.96875 632.726562 "/>
<path style=" stroke:none;fill-rule:nonzero;fill:rgb(97.648621%,78.819275%,19.999695%);fill-opacity:1;" d="M 440.921875 632.726562 L 464.894531 632.726562 L 464.894531 608.753906 L 440.921875 608.753906 L 440.921875 632.726562 "/>
<path style=" stroke:none;fill-rule:nonzero;fill:rgb(97.648621%,78.819275%,19.999695%);fill-opacity:1;" d="M 345.019531 632.726562 L 368.996094 632.726562 L 368.996094 608.753906 L 345.019531 608.753906 L 345.019531 632.726562 "/>
</g>
</svg>
