<?xml version="1.0" encoding="UTF-8"?>
<svg xmlns="http://www.w3.org/2000/svg" xmlns:xlink="http://www.w3.org/1999/xlink" width="810pt" height="809.999993pt" viewBox="0 0 810 809.999993" version="1.2">
<defs>
<clipPath id="clip1">
  <path d="M 48 163 L 760 163 L 760 710.277344 L 48 710.277344 Z M 48 163 "/>
</clipPath>
</defs>
<g id="surface1">
<rect x="0" y="0" width="810" height="809.999993" style="fill:rgb(100%,100%,100%);fill-opacity:1;stroke:none;"/>
<rect x="0" y="0" width="810" height="809.999993" style="fill:rgb(100%,100%,100%);fill-opacity:1;stroke:none;"/>
<g clip-path="url(#clip1)" clip-rule="nonzero">
<path style=" stroke:none;fill-rule:evenodd;fill:rgb(0%,0%,0%);fill-opacity:1;" d="M 746.644531 163.289062 C 753.773438 163.289062 759.667969 169.320312 759.667969 176.445312 L 759.667969 626.535156 C 759.667969 633.800781 754.046875 640.925781 746.507812 642.433594 L 409.222656 709.867188 C 406.480469 710.414062 401.957031 710.414062 399.214844 709.867188 L 61.929688 642.433594 C 54.800781 640.925781 48.90625 633.800781 48.90625 626.535156 L 48.90625 176.445312 C 48.90625 169.183594 54.527344 163.289062 61.929688 163.289062 L 364.800781 163.289062 L 364.800781 189.601562 L 75.230469 189.601562 L 75.230469 618.175781 L 391.125 681.496094 L 404.285156 683.6875 L 417.449219 681.359375 L 733.34375 618.175781 L 733.34375 189.601562 L 443.773438 189.601562 L 443.773438 163.289062 Z M 746.644531 163.289062 "/>
</g>
<path style=" stroke:none;fill-rule:evenodd;fill:rgb(97.648621%,78.819275%,19.999695%);fill-opacity:1;" d="M 691.527344 102.574219 C 700.027344 100.929688 707.019531 106.410156 707.019531 115.183594 L 707.019531 574.179688 C 707.019531 581.308594 701.261719 588.296875 693.992188 589.804688 L 417.449219 645.039062 L 417.449219 157.394531 Z M 691.527344 102.574219 "/>
<path style=" stroke:none;fill-rule:evenodd;fill:rgb(97.648621%,78.819275%,19.999695%);fill-opacity:1;" d="M 117.046875 102.574219 C 108.410156 100.929688 101.554688 106.410156 101.554688 115.183594 L 101.554688 574.179688 C 101.554688 581.308594 107.3125 588.296875 114.578125 589.804688 L 391.125 645.039062 L 391.125 157.394531 Z M 117.046875 102.574219 "/>
</g>
</svg>
