<?xml version="1.0" encoding="UTF-8"?>
<svg xmlns="http://www.w3.org/2000/svg" xmlns:xlink="http://www.w3.org/1999/xlink" width="810pt" height="809.999993pt" viewBox="0 0 810 809.999993" version="1.2">
<defs>
<clipPath id="clip1">
  <path d="M 47.324219 47.324219 L 762.824219 47.324219 L 762.824219 762.824219 L 47.324219 762.824219 Z M 47.324219 47.324219 "/>
</clipPath>
</defs>
<g id="surface1">
<rect x="0" y="0" width="810" height="809.999993" style="fill:rgb(100%,100%,100%);fill-opacity:1;stroke:none;"/>
<rect x="0" y="0" width="810" height="809.999993" style="fill:rgb(100%,100%,100%);fill-opacity:1;stroke:none;"/>
<g clip-path="url(#clip1)" clip-rule="nonzero">
<path style=" stroke:none;fill-rule:nonzero;fill:rgb(89.7995%,66.668701%,9.01947%);fill-opacity:1;" d="M 47.324219 405.152344 C 47.324219 207.5625 207.5625 47.324219 405.152344 47.324219 C 602.742188 47.324219 762.976562 207.5625 762.976562 405.152344 C 762.976562 602.742188 602.742188 762.976562 405.152344 762.976562 C 207.5625 762.976562 47.324219 602.742188 47.324219 405.152344 Z M 47.324219 405.152344 "/>
</g>
<path style=" stroke:none;fill-rule:nonzero;fill:rgb(100%,100%,100%);fill-opacity:1;" d="M 534.667969 207.996094 C 534.667969 185.925781 275.203125 185.925781 275.203125 207.996094 L 275.203125 238.714844 C 275.203125 313.136719 333.328125 373.421875 404.863281 373.421875 C 476.542969 373.421875 534.523438 313.136719 534.523438 238.714844 C 534.667969 236.839844 534.667969 207.996094 534.667969 207.996094 "/>
<path style=" stroke:none;fill-rule:nonzero;fill:rgb(100%,100%,100%);fill-opacity:1;" d="M 434.285156 519.234375 C 434.285156 535.101562 376.882812 535.101562 376.882812 519.234375 L 358.566406 360.875 C 358.566406 345.007812 452.601562 345.007812 452.601562 360.875 Z M 434.285156 519.234375 "/>
<path style=" stroke:none;fill-rule:nonzero;fill:rgb(100%,100%,100%);fill-opacity:1;" d="M 504.089844 529.332031 C 495.4375 512.3125 454.765625 507.695312 405.441406 507.695312 L 405.152344 507.695312 C 405.152344 507.695312 405.007812 507.695312 404.863281 507.695312 C 355.539062 507.695312 315.011719 512.3125 306.210938 529.332031 C 297.414062 546.492188 300.730469 618.03125 300.730469 618.894531 L 509.570312 618.894531 C 509.570312 618.03125 512.746094 546.492188 504.089844 529.332031 "/>
<path style=" stroke:none;fill-rule:nonzero;fill:rgb(100%,100%,100%);fill-opacity:1;" d="M 514.910156 366.5 C 490.679688 366.5 471.0625 348.472656 470.199219 347.605469 C 466.59375 344.289062 466.449219 338.664062 469.765625 335.203125 C 473.082031 331.597656 478.707031 331.453125 482.3125 334.769531 C 482.457031 334.914062 501.351562 352.222656 520.675781 348.328125 C 533.082031 345.875 543.753906 334.914062 552.40625 315.875 C 561.492188 295.972656 562.792969 280.25 556.445312 269.003906 C 547.503906 253.28125 525.292969 250.542969 525.003906 250.398438 C 520.101562 249.820312 516.640625 245.492188 517.214844 240.734375 C 517.792969 235.828125 522.121094 232.367188 526.878906 232.945312 C 528.175781 233.089844 558.175781 236.550781 571.734375 260.347656 C 581.109375 276.789062 579.953125 297.847656 568.417969 323.230469 C 557.3125 347.75 542.3125 362.027344 523.996094 365.632812 C 520.964844 366.210938 517.792969 366.5 514.910156 366.5 "/>
<path style=" stroke:none;fill-rule:nonzero;fill:rgb(100%,100%,100%);fill-opacity:1;" d="M 295.394531 366.5 C 319.625 366.5 339.242188 348.472656 340.105469 347.605469 C 343.710938 344.289062 343.855469 338.664062 340.539062 335.203125 C 337.222656 331.597656 331.597656 331.453125 327.992188 334.769531 C 327.847656 334.914062 308.953125 352.222656 289.625 348.328125 C 277.222656 345.875 266.550781 334.914062 257.898438 315.875 C 248.808594 295.972656 247.511719 280.25 253.859375 269.003906 C 262.800781 253.28125 285.011719 250.542969 285.300781 250.398438 C 290.203125 249.820312 293.664062 245.492188 293.089844 240.734375 C 292.511719 235.828125 288.183594 232.367188 283.425781 232.945312 C 282.125 233.089844 252.128906 236.550781 238.570312 260.347656 C 229.195312 276.789062 230.347656 297.847656 241.886719 323.230469 C 252.992188 347.75 267.992188 362.027344 286.308594 365.632812 C 289.339844 366.210938 292.511719 366.5 295.394531 366.5 "/>
</g>
</svg>
