<?xml version="1.0" encoding="UTF-8"?>
<svg xmlns="http://www.w3.org/2000/svg" xmlns:xlink="http://www.w3.org/1999/xlink" width="810pt" height="809.999993pt" viewBox="0 0 810 809.999993" version="1.2">
<defs>
<clipPath id="clip1">
  <path d="M 30.25 30.25 L 779.5 30.25 L 779.5 779.5 L 30.25 779.5 Z M 30.25 30.25 "/>
</clipPath>
<clipPath id="clip2">
  <path d="M 427 30.25 L 779.5 30.25 L 779.5 602 L 427 602 Z M 427 30.25 "/>
</clipPath>
<clipPath id="clip3">
  <path d="M 404 30.25 L 779.5 30.25 L 779.5 779.5 L 404 779.5 Z M 404 30.25 "/>
</clipPath>
</defs>
<g id="surface1">
<rect x="0" y="0" width="810" height="809.999993" style="fill:rgb(100%,100%,100%);fill-opacity:1;stroke:none;"/>
<rect x="0" y="0" width="810" height="809.999993" style="fill:rgb(100%,100%,100%);fill-opacity:1;stroke:none;"/>
<g clip-path="url(#clip1)" clip-rule="nonzero">
<path style=" stroke:none;fill-rule:nonzero;fill:rgb(97.648621%,78.819275%,19.999695%);fill-opacity:1;" d="M 779.566406 404.945312 C 779.566406 611.84375 611.84375 779.566406 404.945312 779.566406 C 198.050781 779.566406 30.324219 611.84375 30.324219 404.945312 C 30.324219 198.050781 198.050781 30.324219 404.945312 30.324219 C 611.84375 30.324219 779.566406 198.050781 779.566406 404.945312 "/>
</g>
<g clip-path="url(#clip2)" clip-rule="nonzero">
<path style=" stroke:none;fill-rule:nonzero;fill:rgb(100%,100%,100%);fill-opacity:1;" d="M 724.003906 601.367188 C 759.242188 544.257812 779.566406 476.972656 779.566406 404.945312 C 779.566406 476.972656 759.242188 544.257812 724.003906 601.367188 M 749.796875 258.339844 C 695.507812 130.8125 572.554688 39.546875 427.363281 30.980469 C 572.554688 39.546875 695.507812 130.8125 749.796875 258.339844 "/>
</g>
<g clip-path="url(#clip3)" clip-rule="nonzero">
<path style=" stroke:none;fill-rule:nonzero;fill:rgb(0%,0%,0%);fill-opacity:1;" d="M 404.945312 779.566406 L 404.945312 30.324219 C 412.46875 30.324219 419.945312 30.546875 427.363281 30.980469 C 572.554688 39.546875 695.507812 130.8125 749.796875 258.339844 C 768.960938 303.363281 779.566406 352.914062 779.566406 404.945312 C 779.566406 476.972656 759.242188 544.257812 724.003906 601.367188 C 658.035156 708.296875 539.816406 779.566406 404.945312 779.566406 "/>
</g>
<path style=" stroke:none;fill-rule:nonzero;fill:rgb(100%,100%,100%);fill-opacity:1;" d="M 601.695312 417.144531 L 208.1875 417.144531 C 206.507812 417.144531 205.144531 415.78125 205.144531 414.101562 L 205.144531 398.894531 C 205.144531 397.214844 206.507812 395.851562 208.1875 395.851562 L 601.695312 395.851562 C 603.382812 395.851562 604.746094 397.214844 604.746094 398.894531 L 604.746094 414.101562 C 604.746094 415.78125 603.382812 417.144531 601.695312 417.144531 "/>
<path style=" stroke:none;fill-rule:nonzero;fill:rgb(100%,100%,100%);fill-opacity:1;" d="M 572.179688 526.675781 L 473.253906 526.675781 L 473.253906 436.71875 L 572.179688 436.71875 Z M 454.410156 526.675781 L 355.484375 526.675781 L 355.484375 436.71875 L 454.410156 436.71875 Z M 336.636719 526.675781 L 237.710938 526.675781 L 237.710938 436.71875 L 336.636719 436.71875 Z M 221.480469 417.144531 L 221.480469 546.246094 L 588.40625 546.246094 L 588.40625 417.144531 L 221.480469 417.144531 "/>
<path style=" stroke:none;fill-rule:nonzero;fill:rgb(100%,100%,100%);fill-opacity:1;" d="M 475.933594 390.78125 L 472.382812 354.765625 C 471.371094 349.632812 467.957031 345.296875 463.207031 343.105469 L 437.839844 331.414062 L 437.46875 331.433594 L 437.46875 331.328125 L 426.925781 323.386719 L 426.925781 323.457031 C 426.574219 322.078125 425.996094 320.910156 425.121094 320.046875 L 424.984375 320.199219 L 424.984375 307.109375 C 428.554688 301.8125 430.832031 296.671875 431.488281 295.128906 C 433.085938 294.089844 438.179688 290.09375 438.417969 283.179688 C 438.632812 276.964844 436.546875 275.472656 434.695312 275.445312 C 435.15625 271.121094 437.378906 239.761719 405.433594 239.761719 C 371.128906 239.761719 375.996094 275.941406 375.996094 275.941406 C 374.199219 276.167969 372.277344 277.503906 372.582031 283.179688 C 372.945312 290.085938 377.914062 294.089844 379.511719 295.128906 C 380.160156 296.671875 382.429688 301.785156 385.984375 307.066406 L 385.984375 320.144531 C 385.164062 320.992188 384.613281 322.113281 384.277344 323.425781 L 373.792969 331.328125 L 373.792969 331.777344 L 349.21875 343.105469 C 344.46875 345.296875 341.054688 349.632812 340.035156 354.765625 L 336.492188 390.78125 L 475.933594 390.78125 "/>
<path style=" stroke:none;fill-rule:nonzero;fill:rgb(100%,100%,100%);fill-opacity:1;" d="M 482.429688 312.222656 C 482.96875 313.488281 484.832031 317.6875 487.75 322.023438 L 487.75 332.769531 C 487.078125 333.464844 486.621094 334.386719 486.347656 335.464844 L 477.734375 341.957031 L 477.734375 342.320312 L 473.253906 344.386719 C 475.410156 347.078125 476.9375 350.273438 477.621094 353.726562 L 477.695312 354.242188 L 481.292969 390.78125 L 561.621094 390.78125 L 558.710938 361.203125 C 557.878906 356.984375 555.078125 353.425781 551.167969 351.621094 L 530.339844 342.027344 L 530.035156 342.039062 L 530.035156 341.957031 L 521.375 335.433594 L 521.375 335.488281 C 521.085938 334.351562 520.613281 333.394531 519.890625 332.6875 L 519.777344 332.808594 L 519.777344 322.058594 C 522.710938 317.714844 524.582031 313.496094 525.121094 312.222656 C 526.433594 311.367188 530.613281 308.085938 530.8125 302.414062 C 530.992188 297.304688 529.277344 296.082031 527.757812 296.054688 C 528.136719 292.507812 529.960938 266.75 503.71875 266.75 C 475.546875 266.75 479.546875 296.460938 479.546875 296.460938 C 478.074219 296.652344 476.496094 297.746094 476.746094 302.414062 C 477.042969 308.085938 481.121094 311.367188 482.429688 312.222656 "/>
<path style=" stroke:none;fill-rule:nonzero;fill:rgb(100%,100%,100%);fill-opacity:1;" d="M 334.804688 353.726562 C 335.417969 350.628906 336.726562 347.761719 338.53125 345.261719 L 331.507812 342.027344 L 331.199219 342.039062 L 331.199219 341.957031 L 322.539062 335.433594 L 322.539062 335.488281 C 322.25 334.351562 321.777344 333.394531 321.054688 332.6875 L 320.941406 332.808594 L 320.941406 322.058594 C 323.875 317.714844 325.746094 313.496094 326.285156 312.222656 C 327.597656 311.367188 331.777344 308.085938 331.976562 302.414062 C 332.15625 297.304688 330.441406 296.082031 328.921875 296.054688 C 329.300781 292.507812 331.125 266.75 304.890625 266.75 C 276.710938 266.75 280.710938 296.460938 280.710938 296.460938 C 279.238281 296.652344 277.660156 297.746094 277.910156 302.414062 C 278.210938 308.085938 282.285156 311.367188 283.601562 312.222656 C 284.132812 313.488281 285.996094 317.6875 288.914062 322.023438 L 288.914062 332.769531 C 288.242188 333.464844 287.785156 334.386719 287.511719 335.464844 L 278.898438 341.957031 L 278.898438 342.320312 L 258.71875 351.621094 C 254.816406 353.425781 252.015625 356.984375 251.179688 361.203125 L 248.269531 390.78125 L 331.136719 390.78125 L 334.804688 353.726562 "/>
</g>
</svg>
