<?xml version="1.0" encoding="UTF-8"?>
<svg xmlns="http://www.w3.org/2000/svg" xmlns:xlink="http://www.w3.org/1999/xlink" width="810pt" height="809.999993pt" viewBox="0 0 810 809.999993" version="1.2">
<defs>
<clipPath id="clip1">
  <path d="M 40.089844 42 L 768 42 L 768 769.839844 L 40.089844 769.839844 Z M 40.089844 42 "/>
</clipPath>
</defs>
<g id="surface1">
<rect x="0" y="0" width="810" height="809.999993" style="fill:rgb(100%,100%,100%);fill-opacity:1;stroke:none;"/>
<rect x="0" y="0" width="810" height="809.999993" style="fill:rgb(100%,100%,100%);fill-opacity:1;stroke:none;"/>
<g clip-path="url(#clip1)" clip-rule="nonzero">
<path style=" stroke:none;fill-rule:nonzero;fill:rgb(97.648621%,78.819275%,19.999695%);fill-opacity:1;" d="M 404.007812 42.003906 C 202.894531 42.003906 40.089844 204.808594 40.089844 405.921875 C 40.089844 607.035156 202.894531 769.839844 404.007812 769.839844 C 605.117188 769.839844 767.925781 607.035156 767.925781 405.921875 C 767.925781 204.808594 605.117188 42.003906 404.007812 42.003906 Z M 404.007812 42.003906 "/>
</g>
<path style=" stroke:none;fill-rule:nonzero;fill:rgb(100%,100%,100%);fill-opacity:1;" d="M 404.007812 118.617188 C 245.03125 118.617188 116.703125 246.949219 116.703125 405.921875 C 116.703125 564.894531 245.03125 693.226562 404.007812 693.226562 C 562.980469 693.226562 691.308594 564.894531 691.308594 405.921875 C 691.308594 246.949219 562.980469 118.617188 404.007812 118.617188 Z M 404.007812 616.609375 C 287.171875 616.609375 193.316406 522.757812 193.316406 405.921875 C 193.316406 289.085938 287.171875 195.234375 404.007812 195.234375 C 520.84375 195.234375 614.695312 289.085938 614.695312 405.921875 C 614.695312 522.757812 520.84375 616.609375 404.007812 616.609375 Z M 404.007812 271.847656 C 329.308594 271.847656 269.933594 331.222656 269.933594 405.921875 C 269.933594 480.621094 329.308594 539.996094 404.007812 539.996094 C 478.707031 539.996094 538.082031 480.621094 538.082031 405.921875 C 538.082031 331.222656 478.707031 271.847656 404.007812 271.847656 Z M 404.007812 463.382812 C 371.445312 463.382812 346.546875 438.484375 346.546875 405.921875 C 346.546875 373.359375 371.445312 348.460938 404.007812 348.460938 C 436.566406 348.460938 461.46875 373.359375 461.46875 405.921875 C 461.46875 438.484375 436.566406 463.382812 404.007812 463.382812 Z M 404.007812 463.382812 "/>
<path style=" stroke:none;fill-rule:nonzero;fill:rgb(0%,0%,0%);fill-opacity:1;" d="M 767.925781 118.617188 C 767.925781 118.617188 756.433594 162.671875 725.785156 191.402344 C 695.140625 222.046875 572.558594 237.371094 572.558594 237.371094 C 572.558594 237.371094 587.878906 112.871094 618.527344 84.140625 C 647.257812 53.496094 691.308594 42.003906 691.308594 42.003906 L 691.308594 118.617188 Z M 767.925781 118.617188 "/>
<path style=" stroke:none;fill-rule:nonzero;fill:rgb(0%,0%,0%);fill-opacity:1;" d="M 762.179688 47.75 C 754.515625 40.089844 743.023438 40.089844 735.363281 47.75 L 390.597656 392.515625 C 382.9375 400.175781 382.9375 411.667969 390.597656 419.328125 C 394.429688 423.160156 400.175781 425.074219 404.007812 425.074219 C 407.835938 425.074219 413.582031 423.160156 417.414062 419.328125 L 762.179688 74.566406 C 769.839844 66.90625 769.839844 55.414062 762.179688 47.75 Z M 762.179688 47.75 "/>
<path style=" stroke:none;fill-rule:nonzero;fill:rgb(0%,0%,0%);fill-opacity:1;" d="M 690.890625 94.25 L 717.976562 121.339844 L 605.5625 233.75 L 578.476562 206.660156 Z M 690.890625 94.25 "/>
</g>
</svg>
