<?xml version="1.0" encoding="UTF-8"?>
<svg xmlns="http://www.w3.org/2000/svg" xmlns:xlink="http://www.w3.org/1999/xlink" width="810pt" height="809.999993pt" viewBox="0 0 810 809.999993" version="1.2">
<defs>
<clipPath id="clip1">
  <path d="M 25.367188 25.367188 L 784.367188 25.367188 L 784.367188 784.367188 L 25.367188 784.367188 Z M 25.367188 25.367188 "/>
</clipPath>
</defs>
<g id="surface1">
<rect x="0" y="0" width="810" height="809.999993" style="fill:rgb(100%,100%,100%);fill-opacity:1;stroke:none;"/>
<rect x="0" y="0" width="810" height="809.999993" style="fill:rgb(100%,100%,100%);fill-opacity:1;stroke:none;"/>
<path style=" stroke:none;fill-rule:nonzero;fill:rgb(97.648621%,78.819275%,19.999695%);fill-opacity:1;" d="M 735.398438 502.804688 L 612.980469 502.804688 L 612.980469 453.835938 L 735.398438 453.835938 L 735.398438 502.804688 "/>
<path style=" stroke:none;fill-rule:nonzero;fill:rgb(97.648621%,78.819275%,19.999695%);fill-opacity:1;" d="M 196.753906 502.804688 L 74.335938 502.804688 L 74.335938 453.835938 L 196.753906 453.835938 L 196.753906 502.804688 "/>
<path style=" stroke:none;fill-rule:nonzero;fill:rgb(0%,0%,0%);fill-opacity:1;" d="M 612.980469 196.753906 C 640 196.753906 661.949219 218.703125 661.949219 245.722656 C 661.949219 272.742188 640 294.691406 612.980469 294.691406 C 585.960938 294.691406 564.011719 272.742188 564.011719 245.722656 C 564.011719 218.703125 585.960938 196.753906 612.980469 196.753906 Z M 661.328125 300.90625 C 676.675781 287.421875 686.433594 267.71875 686.433594 245.722656 C 686.433594 205.21875 653.484375 172.269531 612.980469 172.269531 C 572.476562 172.269531 539.527344 205.21875 539.527344 245.722656 C 539.527344 267.671875 549.234375 287.324219 564.539062 300.8125 C 553.921875 304.492188 543.832031 309.800781 534.601562 316.734375 L 549.332031 336.292969 C 564.25 325.101562 581.992188 319.171875 600.738281 319.171875 L 625.222656 319.171875 C 668.308594 319.171875 704.078125 351.164062 710.054688 392.625 L 574.484375 392.625 L 574.484375 417.109375 L 735.398438 417.109375 L 735.398438 404.867188 C 735.398438 356.761719 704.363281 315.875 661.328125 300.90625 "/>
<path style=" stroke:none;fill-rule:nonzero;fill:rgb(0%,0%,0%);fill-opacity:1;" d="M 196.753906 196.753906 C 223.773438 196.753906 245.722656 218.703125 245.722656 245.722656 C 245.722656 272.742188 223.773438 294.691406 196.753906 294.691406 C 169.734375 294.691406 147.785156 272.742188 147.785156 245.722656 C 147.785156 218.703125 169.734375 196.753906 196.753906 196.753906 Z M 184.511719 319.171875 L 208.996094 319.171875 C 227.742188 319.171875 245.484375 325.101562 260.402344 336.339844 L 275.132812 316.734375 C 265.902344 309.800781 255.8125 304.492188 245.195312 300.8125 C 260.5 287.324219 270.207031 267.671875 270.207031 245.722656 C 270.207031 205.21875 237.257812 172.269531 196.753906 172.269531 C 156.25 172.269531 123.304688 205.21875 123.304688 245.722656 C 123.304688 267.71875 133.058594 287.421875 148.410156 300.90625 C 105.371094 315.875 74.335938 356.761719 74.335938 404.867188 L 74.335938 417.109375 L 235.25 417.109375 L 235.25 392.625 L 99.679688 392.625 C 105.65625 351.164062 141.425781 319.171875 184.511719 319.171875 "/>
<path style=" stroke:none;fill-rule:nonzero;fill:rgb(97.648621%,78.819275%,19.999695%);fill-opacity:1;" d="M 772.125 135.542969 L 37.609375 135.542969 L 37.609375 37.609375 L 772.125 37.609375 L 772.125 135.542969 "/>
<g clip-path="url(#clip1)" clip-rule="nonzero">
<path style=" stroke:none;fill-rule:nonzero;fill:rgb(0%,0%,0%);fill-opacity:1;" d="M 265.136719 625.222656 L 142.097656 748.261719 C 134.589844 755.769531 124.640625 759.882812 114.027344 759.882812 C 92.125 759.882812 74.335938 742.09375 74.335938 720.191406 C 74.335938 709.578125 78.449219 699.628906 85.957031 692.121094 L 208.996094 569.082031 Z M 25.367188 25.367188 L 25.367188 588.496094 L 154.960938 588.496094 L 68.644531 674.8125 C 56.5 686.957031 49.851562 703.027344 49.851562 720.191406 C 49.851562 755.578125 78.640625 784.367188 114.027344 784.367188 C 131.191406 784.367188 147.261719 777.671875 159.40625 765.574219 L 299.757812 625.222656 L 281.394531 606.859375 L 312.238281 576.015625 L 294.929688 558.703125 L 264.085938 589.546875 L 244.671875 570.132812 L 275.515625 539.289062 L 258.203125 521.980469 L 227.359375 552.824219 L 208.996094 534.460938 L 179.445312 564.011719 L 49.851562 564.011719 L 49.851562 49.851562 L 759.882812 49.851562 L 759.882812 564.011719 L 493.191406 564.011719 L 493.191406 588.496094 L 784.367188 588.496094 L 784.367188 25.367188 L 25.367188 25.367188 "/>
</g>
<path style=" stroke:none;fill-rule:nonzero;fill:rgb(0%,0%,0%);fill-opacity:1;" d="M 98.820312 98.820312 L 74.335938 98.820312 L 74.335938 74.335938 L 98.820312 74.335938 L 98.820312 98.820312 "/>
<path style=" stroke:none;fill-rule:nonzero;fill:rgb(0%,0%,0%);fill-opacity:1;" d="M 147.785156 98.820312 L 123.304688 98.820312 L 123.304688 74.335938 L 147.785156 74.335938 L 147.785156 98.820312 "/>
<path style=" stroke:none;fill-rule:nonzero;fill:rgb(0%,0%,0%);fill-opacity:1;" d="M 196.753906 98.820312 L 172.269531 98.820312 L 172.269531 74.335938 L 196.753906 74.335938 L 196.753906 98.820312 "/>
<path style=" stroke:none;fill-rule:nonzero;fill:rgb(97.648621%,78.819275%,19.999695%);fill-opacity:1;" d="M 404.867188 306.933594 C 337.34375 306.933594 282.449219 361.828125 282.449219 429.351562 C 282.449219 496.875 337.34375 551.769531 404.867188 551.769531 C 472.390625 551.769531 527.285156 496.875 527.285156 429.351562 C 527.285156 361.828125 472.390625 306.933594 404.867188 306.933594 Z M 404.867188 612.980469 C 303.585938 612.980469 221.238281 530.632812 221.238281 429.351562 C 221.238281 328.066406 303.585938 245.722656 404.867188 245.722656 C 506.148438 245.722656 588.496094 328.066406 588.496094 429.351562 C 588.496094 530.632812 506.148438 612.980469 404.867188 612.980469 "/>
<path style=" stroke:none;fill-rule:nonzero;fill:rgb(0%,0%,0%);fill-opacity:1;" d="M 404.867188 319.171875 C 344.089844 319.171875 294.691406 368.570312 294.691406 429.351562 C 294.691406 490.128906 344.089844 539.527344 404.867188 539.527344 C 465.648438 539.527344 515.042969 490.128906 515.042969 429.351562 C 515.042969 368.570312 465.648438 319.171875 404.867188 319.171875 Z M 404.867188 564.011719 C 330.601562 564.011719 270.207031 503.617188 270.207031 429.351562 C 270.207031 355.085938 330.601562 294.691406 404.867188 294.691406 C 479.132812 294.691406 539.527344 355.085938 539.527344 429.351562 C 539.527344 503.617188 479.132812 564.011719 404.867188 564.011719 "/>
<path style=" stroke:none;fill-rule:nonzero;fill:rgb(97.648621%,78.819275%,19.999695%);fill-opacity:1;" d="M 466.078125 478.320312 L 343.65625 478.320312 L 343.65625 380.382812 L 466.078125 380.382812 L 466.078125 478.320312 "/>
<path style=" stroke:none;fill-rule:nonzero;fill:rgb(0%,0%,0%);fill-opacity:1;" d="M 466.078125 441.59375 L 343.65625 441.59375 L 343.65625 417.109375 L 466.078125 417.109375 L 466.078125 441.59375 "/>
<path style=" stroke:none;fill-rule:nonzero;fill:rgb(0%,0%,0%);fill-opacity:1;" d="M 466.078125 392.625 L 343.65625 392.625 L 343.65625 368.140625 L 466.078125 368.140625 L 466.078125 392.625 "/>
<path style=" stroke:none;fill-rule:nonzero;fill:rgb(0%,0%,0%);fill-opacity:1;" d="M 466.078125 490.5625 L 343.65625 490.5625 L 343.65625 466.078125 L 466.078125 466.078125 L 466.078125 490.5625 "/>
<path style=" stroke:none;fill-rule:nonzero;fill:rgb(0%,0%,0%);fill-opacity:1;" d="M 735.398438 466.078125 L 612.980469 466.078125 L 612.980469 441.59375 L 735.398438 441.59375 L 735.398438 466.078125 "/>
<path style=" stroke:none;fill-rule:nonzero;fill:rgb(0%,0%,0%);fill-opacity:1;" d="M 735.398438 515.042969 L 612.980469 515.042969 L 612.980469 490.5625 L 735.398438 490.5625 L 735.398438 515.042969 "/>
<path style=" stroke:none;fill-rule:nonzero;fill:rgb(0%,0%,0%);fill-opacity:1;" d="M 196.753906 466.078125 L 74.335938 466.078125 L 74.335938 441.59375 L 196.753906 441.59375 L 196.753906 466.078125 "/>
<path style=" stroke:none;fill-rule:nonzero;fill:rgb(0%,0%,0%);fill-opacity:1;" d="M 196.753906 515.042969 L 74.335938 515.042969 L 74.335938 490.5625 L 196.753906 490.5625 L 196.753906 515.042969 "/>
<path style=" stroke:none;fill-rule:nonzero;fill:rgb(0%,0%,0%);fill-opacity:1;" d="M 368.140625 196.753906 L 343.65625 196.753906 L 343.65625 172.269531 L 368.140625 172.269531 L 368.140625 196.753906 "/>
<path style=" stroke:none;fill-rule:nonzero;fill:rgb(0%,0%,0%);fill-opacity:1;" d="M 417.109375 196.753906 L 392.625 196.753906 L 392.625 172.269531 L 417.109375 172.269531 L 417.109375 196.753906 "/>
<path style=" stroke:none;fill-rule:nonzero;fill:rgb(0%,0%,0%);fill-opacity:1;" d="M 466.078125 196.753906 L 441.59375 196.753906 L 441.59375 172.269531 L 466.078125 172.269531 L 466.078125 196.753906 "/>
</g>
</svg>
