<?xml version="1.0" encoding="UTF-8"?>
<svg xmlns="http://www.w3.org/2000/svg" xmlns:xlink="http://www.w3.org/1999/xlink" width="810pt" height="809.999993pt" viewBox="0 0 810 809.999993" version="1.2">
<defs>
<clipPath id="clip1">
  <path d="M 311 113.789062 L 658 113.789062 L 658 555 L 311 555 Z M 311 113.789062 "/>
</clipPath>
<clipPath id="clip2">
  <path d="M 167 229 L 801.621094 229 L 801.621094 572 L 167 572 Z M 167 229 "/>
</clipPath>
<clipPath id="clip3">
  <path d="M 8.121094 169 L 111 169 L 111 197 L 8.121094 197 Z M 8.121094 169 "/>
</clipPath>
<clipPath id="clip4">
  <path d="M 308 586 L 419 586 L 419 696.539062 L 308 696.539062 Z M 308 586 "/>
</clipPath>
<clipPath id="clip5">
  <path d="M 564 586 L 675 586 L 675 696.539062 L 564 696.539062 Z M 564 586 "/>
</clipPath>
</defs>
<g id="surface1">
<rect x="0" y="0" width="810" height="809.999993" style="fill:rgb(100%,100%,100%);fill-opacity:1;stroke:none;"/>
<rect x="0" y="0" width="810" height="809.999993" style="fill:rgb(100%,100%,100%);fill-opacity:1;stroke:none;"/>
<g clip-path="url(#clip1)" clip-rule="nonzero">
<path style=" stroke:none;fill-rule:nonzero;fill:rgb(97.648621%,78.819275%,19.999695%);fill-opacity:1;" d="M 657.488281 554.347656 L 311.523438 554.347656 L 358.402344 113.808594 L 602.6875 113.808594 L 657.488281 554.347656 "/>
</g>
<path style=" stroke:none;fill-rule:nonzero;fill:rgb(0%,0%,0%);fill-opacity:1;" d="M 539.652344 167.46875 C 539.652344 175.050781 544.726562 181.207031 550.984375 181.207031 C 557.230469 181.207031 562.304688 175.050781 562.304688 167.46875 C 562.304688 159.878906 557.230469 153.71875 550.984375 153.71875 C 544.726562 153.71875 539.652344 159.878906 539.652344 167.46875 "/>
<path style=" stroke:none;fill-rule:nonzero;fill:rgb(0%,0%,0%);fill-opacity:1;" d="M 407.601562 167.46875 C 407.601562 175.050781 412.675781 181.207031 418.933594 181.207031 C 425.179688 181.207031 430.261719 175.050781 430.261719 167.46875 C 430.261719 159.878906 425.179688 153.71875 418.933594 153.71875 C 412.675781 153.71875 407.601562 159.878906 407.601562 167.46875 "/>
<path style=" stroke:none;fill-rule:nonzero;fill:rgb(100%,100%,100%);fill-opacity:1;" d="M 554.105469 176.773438 C 553.859375 176.472656 553.527344 176.304688 553.171875 176.304688 L 547.652344 176.304688 C 546.925781 176.304688 546.335938 177.023438 546.324219 177.90625 C 546.285156 230.828125 518.550781 273.882812 484.507812 273.882812 C 450.472656 273.882812 422.742188 230.828125 422.6875 177.90625 C 422.6875 177.023438 422.097656 176.304688 421.371094 176.304688 L 415.839844 176.304688 C 415.5 176.304688 415.167969 176.472656 414.917969 176.773438 C 414.667969 177.074219 414.53125 177.480469 414.53125 177.90625 C 414.574219 237.308594 445.972656 285.636719 484.507812 285.636719 C 523.050781 285.636719 554.4375 237.308594 554.492188 177.90625 C 554.492188 177.480469 554.355469 177.074219 554.105469 176.773438 "/>
<g clip-path="url(#clip2)" clip-rule="nonzero">
<path style=" stroke:none;fill-rule:nonzero;fill:rgb(0%,0%,0%);fill-opacity:1;" d="M 635.152344 551.261719 C 534.714844 551.261719 434.308594 551.261719 333.863281 551.261719 C 290.835938 450.726562 247.796875 350.210938 204.738281 249.695312 C 391.25 249.695312 577.761719 249.695312 764.265625 249.695312 C 721.25 350.210938 678.1875 450.726562 635.152344 551.261719 Z M 167.882812 229.832031 C 216.597656 343.585938 265.308594 457.351562 313.992188 571.121094 C 427.667969 571.121094 541.34375 571.121094 654.988281 571.121094 C 703.714844 457.351562 752.417969 343.585938 801.128906 229.832031 C 590.039062 229.832031 378.953125 229.832031 167.882812 229.832031 "/>
</g>
<path style=" stroke:none;fill-rule:nonzero;fill:rgb(0%,0%,0%);fill-opacity:1;" d="M 113.609375 169.566406 L 80.0625 169.566406 C 133.675781 294.746094 224.667969 505.527344 278.238281 630.707031 L 658.277344 630.707031 L 658.277344 607.195312 L 301.730469 607.195312 C 251.488281 489.867188 163.867188 286.894531 113.609375 169.566406 "/>
<path style=" stroke:none;fill-rule:nonzero;fill:rgb(0%,0%,0%);fill-opacity:1;" d="M 217.40625 425.75 L 707.761719 425.75 L 707.761719 445.628906 L 217.40625 445.628906 L 217.40625 425.75 "/>
<path style=" stroke:none;fill-rule:nonzero;fill:rgb(0%,0%,0%);fill-opacity:1;" d="M 290.191406 487.15625 L 682.566406 487.15625 L 682.566406 507.011719 L 290.191406 507.011719 L 290.191406 487.15625 "/>
<path style=" stroke:none;fill-rule:nonzero;fill:rgb(0%,0%,0%);fill-opacity:1;" d="M 235.542969 364.355469 L 733.472656 364.355469 L 733.472656 384.234375 L 235.542969 384.234375 L 235.542969 364.355469 "/>
<path style=" stroke:none;fill-rule:nonzero;fill:rgb(0%,0%,0%);fill-opacity:1;" d="M 164.199219 302.949219 L 756.285156 302.949219 L 756.285156 322.828125 L 164.199219 322.828125 L 164.199219 302.949219 "/>
<g clip-path="url(#clip3)" clip-rule="nonzero">
<path style=" stroke:none;fill-rule:nonzero;fill:rgb(0%,0%,0%);fill-opacity:1;" d="M 8.605469 169.566406 L 110.421875 169.566406 L 110.421875 196.890625 L 8.605469 196.890625 L 8.605469 169.566406 "/>
</g>
<path style=" stroke:none;fill-rule:nonzero;fill:rgb(0%,0%,0%);fill-opacity:1;" d="M 584.789062 565.699219 L 678.511719 236.613281 L 657.851562 236.613281 L 564.128906 565.699219 L 584.789062 565.699219 "/>
<path style=" stroke:none;fill-rule:nonzero;fill:rgb(0%,0%,0%);fill-opacity:1;" d="M 519.847656 565.699219 L 565.839844 236.613281 L 545.804688 236.613281 L 499.78125 565.699219 L 519.847656 565.699219 "/>
<path style=" stroke:none;fill-rule:nonzero;fill:rgb(0%,0%,0%);fill-opacity:1;" d="M 403.328125 560.277344 L 309.613281 231.179688 L 290.492188 236.613281 L 384.226562 565.699219 L 403.328125 560.277344 "/>
<path style=" stroke:none;fill-rule:nonzero;fill:rgb(0%,0%,0%);fill-opacity:1;" d="M 469.214844 565.699219 L 423.226562 236.613281 L 403.171875 236.613281 L 449.175781 565.699219 L 469.214844 565.699219 "/>
<g clip-path="url(#clip4)" clip-rule="nonzero">
<path style=" stroke:none;fill-rule:nonzero;fill:rgb(0%,0%,0%);fill-opacity:1;" d="M 418.496094 641.433594 C 418.496094 671.863281 393.875 696.515625 363.472656 696.515625 C 333.09375 696.515625 308.441406 671.863281 308.441406 641.433594 C 308.441406 611.019531 333.09375 586.363281 363.472656 586.363281 C 393.875 586.363281 418.496094 611.019531 418.496094 641.433594 "/>
</g>
<g clip-path="url(#clip5)" clip-rule="nonzero">
<path style=" stroke:none;fill-rule:nonzero;fill:rgb(0%,0%,0%);fill-opacity:1;" d="M 674.203125 641.433594 C 674.203125 671.863281 649.582031 696.515625 619.164062 696.515625 C 588.792969 696.515625 564.128906 671.863281 564.128906 641.433594 C 564.128906 611.019531 588.792969 586.363281 619.164062 586.363281 C 649.582031 586.363281 674.203125 611.019531 674.203125 641.433594 "/>
</g>
</g>
</svg>
